<?xml version="1.0" encoding="utf-8"?>
<!-- Generator: Adobe Illustrator 25.2.1, SVG Export Plug-In . SVG Version: 6.00 Build 0)  -->
<svg version="1.1" id="Layer_1" xmlns="http://www.w3.org/2000/svg" xmlns:xlink="http://www.w3.org/1999/xlink" x="0px" y="0px"
	 viewBox="0 0 24 24" style="enable-background:new 0 0 24 24;" xml:space="preserve">
<style type="text/css">
	.st0{fill:#0075C1;}
	.st1{fill:none;stroke:#0075C1;stroke-width:3;stroke-linecap:round;stroke-linejoin:round;}
	.st2{fill-rule:evenodd;clip-rule:evenodd;fill:#0075C1;}
	.st3{fill:#FFB300;}
	.st4{fill:none;stroke:#0075C1;stroke-width:1.26;stroke-linecap:round;}
</style>
<path width="20" height="20" id="Icon_material-alarm-off_1_" class="st0" d="M12.2,5.6c4.2,0,7.6,3.4,7.6,7.6c0,0,0,0,0,0c0,0.9-0.2,1.8-0.5,2.6l1.6,1.6
	c0.6-1.3,1-2.8,1-4.2c0-5.4-4.3-9.7-9.7-9.7c0,0,0,0,0,0c-1.5,0-2.9,0.3-4.2,1L9.6,6C10.4,5.7,11.3,5.6,12.2,5.6z M23,5.3l-5-4.2
	l-1.4,1.7l5,4.2L23,5.3z M2.4,1.6L1,2.9l1.4,1.4l-1.2,1l1.5,1.5l1.2-1l0.9,0.9c-3.5,4-3.1,10.2,0.9,13.7c3.7,3.2,9.1,3.2,12.8,0
	l2.4,2.4l1.4-1.4L3.4,2.6L2.4,1.6z M17,19c-3.2,2.7-8,2.2-10.7-1C4,15.2,4,11.1,6.4,8.3L17,19z M7.9,2.6L6.4,1.1L5.4,1.9L7,3.4
	L7.9,2.6z"/>
</svg>
