<?xml version="1.0" encoding="utf-8"?>
<!-- Generator: Adobe Illustrator 25.2.1, SVG Export Plug-In . SVG Version: 6.00 Build 0)  -->
<svg version="1.1" id="Layer_1" xmlns="http://www.w3.org/2000/svg" xmlns:xlink="http://www.w3.org/1999/xlink" x="0px" y="0px"
	 viewBox="0 0 24 24" style="enable-background:new 0 0 24 24;" xml:space="preserve">
<style type="text/css">
	.st0{fill:#0075C1;}
	.st1{fill:none;stroke:#0075C1;stroke-width:3;stroke-linecap:round;stroke-linejoin:round;}
	.st2{fill-rule:evenodd;clip-rule:evenodd;fill:#0075C1;}
	.st3{fill:#FFB300;}
	.st4{fill:none;stroke:#0075C1;stroke-width:1.26;stroke-linecap:round;}
</style>
<g>
	<path id="Icon_ionic-md-alarm_1_" class="st0" d="M23,5.5l-5-4.3l-1.5,1.7l5,4.3L23,5.5z M7.5,2.7L6.1,0.9L1,5.1l1.4,1.7L7.5,2.7z
		 M12.5,7.8l-1.6,0l-0.1,6.6l5.2,3.2l0.8-1.4l-4.4-2.6L12.5,7.8L12.5,7.8z M12,3.4c-5.4-0.1-9.9,4.3-9.9,9.7
		c-0.1,5.4,4.3,9.9,9.7,9.9c5.4,0.1,9.8-4.3,9.9-9.7C21.8,7.9,17.5,3.5,12,3.4C12,3.4,12,3.4,12,3.4z M11.7,20.9
		c-4.2-0.1-7.6-3.6-7.5-7.8s3.6-7.6,7.8-7.5c4.2,0.1,7.5,3.6,7.5,7.8C19.5,17.6,16,20.9,11.7,20.9z"/>
</g>
</svg>
