<?xml version="1.0" encoding="utf-8"?>
<!-- Generator: Adobe Illustrator 25.2.1, SVG Export Plug-In . SVG Version: 6.00 Build 0)  -->
<svg version="1.1" id="Layer_1" xmlns="http://www.w3.org/2000/svg" xmlns:xlink="http://www.w3.org/1999/xlink" x="0px" y="0px"
	 viewBox="0 0 24 24" style="enable-background:new 0 0 24 24;" xml:space="preserve">
<style type="text/css">
	.st0{fill:#0075C1;}
	.st1{fill:none;stroke:#0075C1;stroke-width:3;stroke-linecap:round;stroke-linejoin:round;}
	.st2{fill-rule:evenodd;clip-rule:evenodd;fill:#0075C1;}
	.st3{fill:#FFB300;}
	.st4{fill:none;stroke:#0075C1;stroke-width:1.26;stroke-linecap:round;}
</style>
<path id="Path_367_3_" class="st0" d="M18.9,23c-0.2,0-0.5-0.1-0.7-0.2L12,19.3l-6.2,3.5c-0.7,0.4-1.5,0.1-1.9-0.5
	c-0.2-0.3-0.2-0.7-0.1-1L5.3,15l-3.9-4.2c-0.5-0.6-0.5-1.4,0.1-1.9c0.2-0.2,0.4-0.3,0.7-0.3l5.8-1l2.8-5.8c0.3-0.7,1.2-1,1.8-0.6
	c0.3,0.1,0.5,0.3,0.6,0.6l3,5.9l5.6,1c0.7,0.1,1.2,0.8,1.1,1.6c0,0.3-0.2,0.5-0.3,0.7L18.8,15l1.5,6.3c0.2,0.7-0.3,1.5-1,1.6
	C19.1,23,19,23,18.9,23L18.9,23z M12,17.4c0,0,0.6,0.3,0.9,0.5l4.5,2.6c0.3,0.2,0.8-0.1,0.7-0.5L17,15.1c0-0.1,0-0.3,0.1-0.4
	l3.4-3.6c0.2-0.3,0.1-0.7-0.3-0.8l-4.8-0.8c-0.1,0-0.3-0.1-0.3-0.2l-2.6-5.1c-0.2-0.3-0.7-0.3-0.8,0L9.2,9.2C9.1,9.4,9,9.5,8.8,9.5
	l-5.1,0.8c-0.4,0.1-0.5,0.5-0.3,0.8l3.4,3.6C7,14.8,7,15,7,15.1L5.9,20c-0.1,0.4,0.3,0.7,0.7,0.5l4.5-2.6C11.4,17.7,12,17.4,12,17.4
	z"/>
</svg>
