<?xml version="1.0" encoding="utf-8"?>
<!-- Generator: Adobe Illustrator 25.2.1, SVG Export Plug-In . SVG Version: 6.00 Build 0)  -->
<svg version="1.1" id="Layer_1" xmlns="http://www.w3.org/2000/svg" xmlns:xlink="http://www.w3.org/1999/xlink" x="0px" y="0px"
	 viewBox="0 0 24 24" style="enable-background:new 0 0 24 24;" xml:space="preserve">
<style type="text/css">
	.st0{fill:#0075C1;}
	.st1{fill:none;stroke:#0075C1;stroke-width:3;stroke-linecap:round;stroke-linejoin:round;}
	.st2{fill-rule:evenodd;clip-rule:evenodd;fill:#0075C1;}
	.st3{fill:#FFB300;}
	.st4{fill:none;stroke:#0075C1;stroke-width:1.26;stroke-linecap:round;}
</style>
<g id="graphical-data-flow_1_" transform="translate(-2.251 -2.25)">
	<path id="Path_364_1_" class="st0" d="M23.9,25.3h-4.8c-0.9,0-1.6-0.7-1.6-1.6v-4.8c0-0.9,0.7-1.6,1.6-1.6h4.8
		c0.9,0,1.6,0.7,1.6,1.6v4.8C25.5,24.5,24.8,25.2,23.9,25.3z M19.1,18.8L19.1,18.8v4.8h4.8v-4.8H19.1z"/>
	<path id="Path_365_1_" class="st0" d="M15.9,22H11c-1.3,0-2.4-1.1-2.4-2.4v-3.2h1.6v3.2c0,0.4,0.4,0.8,0.8,0.8h4.8L15.9,22z"/>
	<path id="Path_366_1_" class="st0" d="M22.3,15.9h-1.6v-2.4c0-0.4-0.4-0.8-0.8-0.8h-4v-1.6h4c1.3,0,2.4,1.1,2.4,2.4V15.9z"/>
	<path id="Path_367_2_" class="st0" d="M13.4,16.1c-0.1,0-0.3,0-0.4-0.1L9.4,14L5.8,16c-0.4,0.2-0.9,0.1-1.1-0.3
		c-0.1-0.2-0.1-0.4-0.1-0.6l0.9-3.7L3.2,9c-0.3-0.3-0.3-0.8,0-1.1c0.1-0.1,0.3-0.2,0.4-0.2L7,7.1l1.7-3.4c0.2-0.4,0.7-0.6,1.1-0.4
		c0.2,0.1,0.3,0.2,0.4,0.4l1.8,3.4l3.3,0.6c0.4,0.1,0.7,0.5,0.7,0.9c0,0.2-0.1,0.3-0.2,0.4l-2.3,2.4l0.9,3.7c0.1,0.4-0.2,0.9-0.6,1
		C13.6,16.1,13.5,16.1,13.4,16.1L13.4,16.1z M9.4,12.1c0,0,0.3,0.1,0.4,0.2l2.4,1.4L11.6,11l1.8-2l-2.6-0.4L9.4,5.9L8.1,8.6L5.4,9
		l1.8,2l-0.6,2.7L9,12.3C9.1,12.3,9.4,12.1,9.4,12.1z"/>
</g>
</svg>
