<?xml version="1.0" encoding="utf-8"?>
<!-- Generator: Adobe Illustrator 25.2.1, SVG Export Plug-In . SVG Version: 6.00 Build 0)  -->
<svg version="1.1" id="Layer_1" xmlns="http://www.w3.org/2000/svg" xmlns:xlink="http://www.w3.org/1999/xlink" x="0px" y="0px"
	 viewBox="0 0 24 24" style="enable-background:new 0 0 24 24;" xml:space="preserve">
<style type="text/css">
	.st0{fill:#0075C1;}
	.st1{fill:none;stroke:#0075C1;stroke-width:3;stroke-linecap:round;stroke-linejoin:round;}
	.st2{fill-rule:evenodd;clip-rule:evenodd;fill:#0075C1;}
	.st3{fill:#FFB300;}
	.st4{fill:none;stroke:#0075C1;stroke-width:1.26;stroke-linecap:round;}
</style>
<g>
	<path id="Path_371_1_" class="st0" d="M22.1,18c-0.5-0.5-1.2-0.8-1.9-0.9l-0.8-0.8c0.5-0.8,0.8-1.6,1-2.5h2.2V9.6h-2.2
		c-0.2-0.9-0.6-1.7-1-2.5l1.5-1.5l-2.9-2.9l-1.5,1.5c-0.8-0.5-1.6-0.8-2.5-1V1H9.7v2.2C8.8,3.4,8,3.7,7.2,4.2L5.7,2.7L2.7,5.6
		l1.5,1.5c-0.5,0.8-0.8,1.6-1,2.5H1.1v4.2h2.2c0.2,0.9,0.6,1.7,1,2.5l-1.5,1.5l2.9,2.9l1.5-1.5c0.8,0.5,1.6,0.8,2.5,1v2.2h4.2v-2.2
		c0.9-0.2,1.7-0.6,2.5-1l0.7,0.7c-0.1,1.6,1.2,3,2.8,3c0.4,0,0.8-0.1,1.2-0.2l0.4-0.2l-1.9-1.9l0.2-0.8l0.8-0.2l1.9,1.9l0.2-0.4
		C23.2,20.1,22.9,18.8,22.1,18z M16,18.3c-0.8,0.5-1.7,0.9-2.7,1.1l-0.2,0.1v1.9h-2.8v-1.9l-0.2-0.1c-0.9-0.2-1.8-0.6-2.7-1.1
		l-0.2-0.1l-1.4,1.4L4,17.6l1.4-1.4L5.2,16c-0.5-0.8-0.9-1.7-1.1-2.7l-0.1-0.2H2.1v-2.8h1.9l0.1-0.2c0.2-0.9,0.6-1.8,1.1-2.7
		l0.1-0.2L4,5.9l1.9-2l1.4,1.4l0.2-0.1c0.8-0.5,1.7-0.9,2.7-1.1L10.4,4V2.1h2.8V4l0.2,0.1c0.9,0.2,1.8,0.6,2.7,1.1l0.2,0.1l1.4-1.4
		l1.9,1.9l-1.4,1.4l0.1,0.2c0.5,0.8,0.9,1.7,1.1,2.7l0.1,0.2h1.9v2.8h-1.9l-0.1,0.2c-0.2,0.9-0.6,1.8-1.1,2.7l-0.1,0.1l-2.6-2.6
		l-0.3-0.3c0.2-0.5,0.3-1,0.3-1.6c0-2.2-1.8-4-4-4s-4,1.8-4,4s1.8,4,4,4c0.5,0,1.1-0.1,1.6-0.3l2.8,2.8l0,0L16,18.3z M14,10
		c-0.8-0.8-1.9-1-2.9-0.6l-0.4,0.2l1.7,1.7L12.2,12l-0.7,0.2l-1.7-1.7l-0.2,0.4c-0.6,1.4,0.1,2.9,1.5,3.5c0.5,0.2,1,0.2,1.5,0.1
		l0.2,0.2c-1.7,0.6-3.5-0.3-4-2s0.3-3.5,2-4c1.7-0.6,3.5,0.3,4,2c0.2,0.7,0.2,1.4,0,2l-0.1-0.1C14.9,11.7,14.6,10.7,14,10z
		 M22.1,20.3l-1.4-1.4l-1.4,0.4l-0.4,1.4l1.4,1.4c-1.2,0.2-2.3-0.6-2.5-1.8c0-0.2,0-0.4,0-0.6c0,0,0-0.1,0-0.1c0,0,0,0,0,0
		c0,0,0-0.1,0-0.1l0,0c0,0,0-0.1,0-0.1l0,0c0,0,0-0.1,0-0.1c0.2-0.3,0.4-0.6,0.6-0.9L18,17.9c-0.2,0.2-0.4,0.5-0.6,0.7l-2-2
		l-1.8-1.8l0,0L13,14.1l-0.2,0c-1.2,0.3-2.4-0.4-2.7-1.5C10,12.3,10,12,10,11.7l1.4,1.4l1.4-0.4l0.4-1.4l-1.4-1.4
		c1.2-0.2,2.3,0.6,2.5,1.8c0.1,0.4,0,0.7-0.1,1.1L14.3,13c-0.1,0.2-0.2,0.4-0.4,0.6l0.4,0.4c0.2-0.2,0.3-0.3,0.4-0.5l4.4,4.4l0.2,0
		c0,0,0.1,0,0.1,0l0,0l0,0l0,0l0,0l0,0l0,0h0l0,0h0c1.2-0.1,2.3,0.8,2.4,2.1C22.1,19.9,22.1,20.1,22.1,20.3L22.1,20.3z"/>
</g>
</svg>
