<?xml version="1.0" encoding="utf-8"?>
<!-- Generator: Adobe Illustrator 25.2.1, SVG Export Plug-In . SVG Version: 6.00 Build 0)  -->
<svg version="1.1" id="Layer_1" xmlns="http://www.w3.org/2000/svg" xmlns:xlink="http://www.w3.org/1999/xlink" x="0px" y="0px"
	 viewBox="0 0 24 24" style="enable-background:new 0 0 24 24;" xml:space="preserve">
<style type="text/css">
	.st0{fill:#0075C1;}
	.st1{fill:none;stroke:#0075C1;stroke-width:3;stroke-linecap:round;stroke-linejoin:round;}
	.st2{fill-rule:evenodd;clip-rule:evenodd;fill:#0075C1;}
	.st3{fill:#FFB300;}
	.st4{fill:none;stroke:#0075C1;stroke-width:1.26;stroke-linecap:round;}
</style>
<g>
	<path id="Path_370_1_" class="st2" d="M21.2,21.4H2.8c-0.4,0-0.7-0.4-0.7-0.8v-11c0-0.4,0.3-0.8,0.7-0.8h18.3
		c0.4,0,0.7,0.4,0.7,0.8v11C21.9,21.1,21.6,21.4,21.2,21.4z M2.8,23c-1.2-0.1-2.2-1.1-2.1-2.4v-11C0.7,8.4,1.6,7.4,2.8,7.3h18.3
		c1.2,0.1,2.2,1.1,2.1,2.4v11c0.1,1.2-0.9,2.3-2.1,2.4H2.8z M3.6,4.9c0,0.4,0.3,0.8,0.7,0.8h15.5c0.4,0,0.7-0.4,0.7-0.8
		c0-0.4-0.3-0.8-0.7-0.8H4.3C3.8,4.2,3.5,4.5,3.6,4.9z M6.4,1.8c0,0.4,0.3,0.8,0.7,0.8h9.9c0.4,0,0.7-0.4,0.7-0.8
		c0-0.4-0.3-0.8-0.7-0.8H7.1C6.7,1,6.3,1.4,6.4,1.8z"/>
</g>
</svg>
