<?xml version="1.0" encoding="utf-8"?>
<!-- Generator: Adobe Illustrator 25.2.1, SVG Export Plug-In . SVG Version: 6.00 Build 0)  -->
<svg version="1.1" id="Layer_1" xmlns="http://www.w3.org/2000/svg" xmlns:xlink="http://www.w3.org/1999/xlink" x="0px" y="0px"
	 viewBox="0 0 24 24" style="enable-background:new 0 0 24 24;" xml:space="preserve">
<style type="text/css">
	.st0{fill:#0075C1;}
	.st1{fill:none;stroke:#0075C1;stroke-width:3;stroke-linecap:round;stroke-linejoin:round;}
	.st2{fill-rule:evenodd;clip-rule:evenodd;fill:#0075C1;}
	.st3{fill:#FFB300;}
	.st4{fill:none;stroke:#0075C1;stroke-width:1.26;stroke-linecap:round;}
</style>
<g id="report_1_" transform="translate(-5.625 -2.25)">
	<path id="Path_359_1_" class="st0" d="M12.9,15.8h6.3v1.6h-6.3V15.8z"/>
	<path id="Path_360_1_" class="st0" d="M12.9,11.9h9.4v1.6h-9.4V11.9z"/>
	<path id="Path_361_1_" class="st0" d="M12.9,19.8h3.9v1.6h-3.9V19.8z"/>
	<path id="Path_362_1_" class="st0" d="M24.7,5.6h-2.4V4.8c0-0.9-0.7-1.6-1.6-1.6c0,0,0,0,0,0h-6.3c-0.9,0-1.6,0.7-1.6,1.6
		c0,0,0,0,0,0v0.8h-2.4C9.7,5.6,9,6.3,9,7.2c0,0,0,0,0,0v16.5c0,0.9,0.7,1.6,1.6,1.6l0,0h14.1c0.9,0,1.6-0.7,1.6-1.6l0,0V7.2
		C26.3,6.3,25.6,5.6,24.7,5.6L24.7,5.6z M14.5,4.8h6.3V8h-6.3V4.8z M24.7,23.7H10.6V7.2h2.4v2.4h9.4V7.2h2.4L24.7,23.7z"/>
</g>
</svg>
