<?xml version="1.0" encoding="utf-8"?>
<!-- Generator: Adobe Illustrator 25.2.0, SVG Export Plug-In . SVG Version: 6.00 Build 0)  -->
<svg version="1.1" id="Layer_1" xmlns="http://www.w3.org/2000/svg" xmlns:xlink="http://www.w3.org/1999/xlink" x="0px" y="0px"
	 viewBox="0 0 96 96" style="enable-background:new 0 0 96 96;" xml:space="preserve">
<style type="text/css">
	.st0{fill:none;stroke:#666666;stroke-width:5;}
	.st1{fill:#FFFFFF;}
	.st2{fill:#666666;}
	.st3{fill:#DFDFDF;}
	.st4{fill:none;stroke:#0075C1;stroke-width:2;}
	.st5{fill:#0075C1;}
	.st6{fill:none;stroke:#0075C1;stroke-width:2;stroke-linecap:round;stroke-linejoin:round;}
</style>
<g transform="translate(-31 -29)">
	<path class="st0" d="M116.2,77c0-4.7,2.9-9,7.3-10.7c-1.1-4.7-3-9.1-5.5-13.2c-1.5,0.7-3.1,1-4.7,1c-6.3,0-11.4-5.1-11.4-11.4
		c0-1.6,0.3-3.2,1-4.7c-4.1-2.5-8.5-4.4-13.2-5.5c-2.2,5.9-8.8,8.9-14.7,6.6c-3.1-1.2-5.5-3.6-6.6-6.6c-4.7,1.1-9.1,3-13.2,5.5
		c2.6,5.8,0,12.5-5.8,15.1c-1.5,0.7-3.1,1-4.7,1c-1.6,0-3.2-0.3-4.7-1c-2.5,4.1-4.3,8.6-5.5,13.3c5.9,2.2,8.9,8.9,6.6,14.8
		c-1.2,3.1-3.6,5.5-6.6,6.6c1.1,4.7,3,9.1,5.5,13.2c5.8-2.6,12.5,0,15.1,5.8c1.3,3,1.3,6.3,0,9.3c4.1,2.5,8.6,4.4,13.2,5.5
		c2.3-5.9,8.9-8.8,14.8-6.6c3,1.2,5.4,3.5,6.6,6.6c4.7-1.1,9.1-3,13.2-5.5c-2.6-5.8,0.1-12.5,5.8-15.1c2.9-1.3,6.3-1.3,9.2,0
		c2.5-4.1,4.4-8.6,5.5-13.2C119,86,116.1,81.7,116.2,77z M79.2,95.5c-10.2,0-18.5-8.3-18.5-18.5S69,58.4,79.2,58.4
		s18.5,8.3,18.5,18.5C97.8,87.2,89.5,95.5,79.2,95.5C79.2,95.5,79.2,95.5,79.2,95.5z"/>
</g>
</svg>
